<?xml version="1.0" encoding="UTF-8" standalone="no"?>
<svg
   xmlns:dc="http://purl.org/dc/elements/1.1/"
   xmlns:cc="http://creativecommons.org/ns#"
   xmlns:rdf="http://www.w3.org/1999/02/22-rdf-syntax-ns#"
   xmlns:svg="http://www.w3.org/2000/svg"
   xmlns="http://www.w3.org/2000/svg"
   width="512.0px"
   height="512.0px"
   viewBox="0 0 512.0 512.0"
   version="1.1"
   id="SVGRoot">
  <defs
     id="defs833" />
  <metadata
     id="metadata836">
    <rdf:RDF>
      <cc:Work
         rdf:about="">
        <dc:format>image/svg+xml</dc:format>
        <dc:type
           rdf:resource="http://purl.org/dc/dcmitype/StillImage" />
        <dc:title></dc:title>
      </cc:Work>
    </rdf:RDF>
  </metadata>
  <g
     id="layer1">
    <path
       id="path1412"
       style="fill:#ffffff;fill-opacity:1;stroke:#000000;stroke-width:8;stroke-miterlimit:4;stroke-dasharray:none;stroke-opacity:1"
       d="M 256,36.571429 A 219.42857,219.42857 0 0 0 36.571429,256 219.42857,219.42857 0 0 0 256,475.42857 219.42857,219.42857 0 0 0 475.42857,256 219.42857,219.42857 0 0 0 256,36.571429 Z m -0.18527,54.857142 a 164.57143,164.57143 0 0 1 0.18527,0 164.57143,164.57143 0 0 1 87.60045,25.252229 L 116.6808,343.60045 A 164.57143,164.57143 0 0 1 91.428571,256 164.57143,164.57143 0 0 1 255.81473,91.428571 Z M 395.3192,168.39955 A 164.57143,164.57143 0 0 1 420.57143,256 164.57143,164.57143 0 0 1 256,420.57143 164.57143,164.57143 0 0 1 168.39955,395.3192 Z" />
  </g>
</svg>
