<?xml version="1.0" encoding="UTF-8" standalone="no"?>
<svg
   xmlns:dc="http://purl.org/dc/elements/1.1/"
   xmlns:cc="http://creativecommons.org/ns#"
   xmlns:rdf="http://www.w3.org/1999/02/22-rdf-syntax-ns#"
   xmlns:svg="http://www.w3.org/2000/svg"
   xmlns="http://www.w3.org/2000/svg"
   width="128"
   height="128"
   viewBox="0 0 33.866666 33.866668"
   version="1.1"
   id="svg8"
   style="enable-background:new">
  <defs
     id="defs2" />
  <metadata
     id="metadata5">
    <rdf:RDF>
      <cc:Work
         rdf:about="">
        <dc:format>image/svg+xml</dc:format>
        <dc:type
           rdf:resource="http://purl.org/dc/dcmitype/StillImage" />
        <dc:title></dc:title>
      </cc:Work>
    </rdf:RDF>
  </metadata>
  <path
     style="fill:#000000;fill-opacity:1;stroke:none;stroke-width:0.0477938;stroke-opacity:1;enable-background:new"
     d="M 24.226047,31.611539 C 18.562881,28.154644 16.93688,21.516116 16.93688,21.516116 c 0,0 -1.633095,6.638528 -7.2962603,10.095423 z"
     id="path815-0" />
  <path
     id="path900"
     style="fill:#000000;stroke-width:0.999999"
     d="M 63.896484 8.7265625 A 22.32433 22.32433 0 0 0 41.675781 31.050781 A 22.32433 22.32433 0 0 0 42.398438 36.683594 A 22.32433 22.32433 0 0 0 41.675781 36.671875 A 22.32433 22.32433 0 0 0 19.351562 58.996094 A 22.32433 22.32433 0 0 0 41.675781 81.320312 A 22.32433 22.32433 0 0 0 64 58.996094 A 22.32433 22.32433 0 0 0 86.324219 81.320312 A 22.32433 22.32433 0 0 0 108.64844 58.996094 A 22.32433 22.32433 0 0 0 86.324219 36.671875 A 22.32433 22.32433 0 0 0 85.599609 36.683594 A 22.32433 22.32433 0 0 0 86.324219 31.050781 A 22.32433 22.32433 0 0 0 64 8.7265625 A 22.32433 22.32433 0 0 0 63.896484 8.7265625 z "
     transform="scale(0.26458334)" />
</svg>
